<svg viewBox="0 0 380 380" xmlns="http://www.w3.org/2000/svg"><style>.mark{fill:#1d1d1d}@media (prefers-color-scheme:dark){.mark{fill:#f5f5f5}}</style><g class="mark"><path d="m73.72 202.35-8.99-8.76c-2.26-2.2-2.11-5.14.1-7.37l40.76-41.11c1.52-1.53 4.08.02 5.37 2.24l6-5.84c-16.92-19.88-14.61-49.07 4.75-66.32 23.05-20.54 58.86-15.35 74.84 11.35 8.64 14.44 8.95 32.68.69 47.3-14.83 26.27-48.91 33.41-72.9 14.99l-5.74 5.95c1.73 1.93 2.47 2.96 2.9 4.98l-41.75 42.1c-1.42 1.43-4.5 1.98-6.03.49zm91.54-55.45c20.33-5.82 31.71-27.11 25.61-46.98-5.11-16.63-20.73-27.16-37.54-26.68-17.09.48-32 12.25-36 29.16-3.18 13.42 1.46 26.91 11.1 35.94s23.29 12.44 36.83 8.57z"/><path d="m181.5 156.78c28.51 32.06 77.81 33.3 107.7 1.96 19.98-20.95 26.11-51.53 14.25-79.1-10.57-24.57-35-42.32-63.15-43.76-23.92-1.22-46.66 8.55-61.51 27.4l-6.59-3.16c15.37-20.1 38.25-31.02 62.9-31.42 33.67-.55 63.6 19.98 75.61 50.07 12.94 32.41 3.71 68.27-22.59 90.68-33.85 28.84-83.06 24.75-113.09-9.04z"/><path d="m192.34 148.63c17.53 18.49 44.19 24.64 67.42 14.33 33.06-14.67 45.92-54.24 27.2-85.2-9.85-16.3-27.35-26.7-45.66-28.23-19.85-1.66-38.47 6.34-51.09 21.4l-5.42-4.33c16.99-21.18 45.95-29.44 71.87-21.03 24.1 7.82 41.18 28.23 45.15 52.05 4.34 26.03-6.96 51.14-28.28 65.75-27.5 18.86-63.6 14.42-86.19-10.12l5.01-4.61z"/><path d="m201.02 137.88c13.54 15.4 35 20.9 53.96 12.21s29.06-27.25 26.35-47.85c-2.4-18.21-15.98-32.97-32.91-37.6-18.55-5.07-37.51 1.81-48.95 16.75l-4.27-5.79c19.13-23.73 54.04-26.17 76.41-5.94 22.27 20.14 23.11 54.8 1.73 76.12-21.26 21.19-56.26 20.57-76.49-2.35l4.16-5.55z"/><path d="m243.13 77.5c-15.34-3.4-29.64 4.56-36.45 17.87l-3.51-7.7c12.76-19.66 39.79-23.94 57.69-9.2 17.96 14.78 19.04 42.03 2.42 58.07-16.97 16.36-44.48 14.26-58.85-5.04l2.9-8.5c7.03 13.31 21.77 20.18 36.44 16.56 13.85-3.42 24.16-16.19 24.21-31s-9.8-27.72-24.85-31.06z"/><path d="m165.53 58.3-10.27-2.28c7.16-4.65 14.94-8.14 23.66-9.7-4.95 3.78-9.13 7.32-13.39 11.98z"/><path d="m170.24 162.95-10.36 1.82c6.95 4.96 14.57 8.78 23.21 10.73-4.78-4-8.8-7.71-12.85-12.56z"/><path d="m167.45 128.85-37.88.06-.12-6.89 37.99-.07z"/><path d="m179.91 100.39-31.79.01-.02-6.83 31.77.01z"/><path d="m179.92 114.66h-26.08l-.02-6.93 26.02.06z"/><path d="m148.39 114.64-18.93.03.03-6.93 18.84.02z"/><path d="m142.48 100.4-13.01-.01-.01-6.86 13.01.05z"/><path d="m159.18 170.86c15.12 9.58 32.46 13.32 49.96 10.82l10.98 4.63c-26.57 7.87-55.51.9-75.77-18.63 4.81 1.33 9.32 2.45 14.84 3.18z"/></g><path d="m47.55 275.86c0-2.22-.07-4.3-.21-6.25-.14-1.94-.21-3.71-.21-5.31h7.73c0 1.32.03 2.64.1 3.96s.1 2.67.1 4.06h.21c.56-1.18 1.34-2.32 2.35-3.44 1.01-1.11 2.21-2.1 3.6-2.97s2.96-1.56 4.7-2.08 3.62-.78 5.64-.78c.56 0 1.11.04 1.67.1.56.07 1.11.21 1.67.42l-.52 8.23c-1.39-.42-2.86-.62-4.39-.62-5.01 0-8.65 1.61-10.92 4.84-2.26 3.23-3.39 7.65-3.39 13.28v23.74h-8.15v-37.17z"/><path d="m126.1 304.19c-2.92 3.75-6.13 6.37-9.61 7.86s-7.52 2.24-12.12 2.24c-3.83 0-7.28-.68-10.34-2.03s-5.66-3.18-7.78-5.47-3.76-5-4.91-8.12-1.72-6.46-1.72-10c0-3.75.63-7.2 1.88-10.36s2.99-5.87 5.22-8.12c2.23-2.26 4.87-4.01 7.94-5.26 3.06-1.25 6.41-1.87 10.03-1.87 3.41 0 6.54.57 9.4 1.72 2.85 1.15 5.31 2.81 7.36 5s3.64 4.86 4.75 8.02 1.67 6.75 1.67 10.78v2.6h-39.48c.14 2.08.64 4.08 1.51 5.99s2 3.58 3.4 5c1.39 1.42 3.03 2.55 4.91 3.38s3.93 1.25 6.16 1.25c3.55 0 6.54-.62 8.98-1.87s4.63-3.09 6.58-5.52l6.16 4.79zm-7-19.89c-.14-4.17-1.5-7.5-4.07-10-2.58-2.5-6.13-3.75-10.65-3.75s-8.18 1.25-10.97 3.75-4.46 5.83-5.01 10h30.71z"/><path d="m144.69 271.18h-10.65v-6.87h10.65v-10.93c0-2.98.28-5.71.84-8.17s1.51-4.6 2.87-6.4 3.15-3.21 5.38-4.22 4.98-1.51 8.25-1.51c1.04 0 2.16.1 3.34.31s2.16.52 2.92.94l-1.15 7.29c-1.95-.69-3.8-1.04-5.54-1.04-2.09 0-3.73.36-4.91 1.09-1.19.73-2.07 1.74-2.66 3.02-.59 1.29-.94 2.83-1.04 4.63-.1 1.81-.16 3.75-.16 5.83v9.16h11.91v6.87h-11.91v41.86h-8.15v-41.86z"/><path d="m173.41 275.86c0-2.22-.07-4.3-.21-6.25-.14-1.94-.21-3.71-.21-5.31h7.73c0 1.32.03 2.64.1 3.96s.1 2.67.1 4.06h.21c.56-1.18 1.34-2.32 2.35-3.44 1.01-1.11 2.21-2.1 3.6-2.97s2.96-1.56 4.7-2.08 3.62-.78 5.64-.78c.56 0 1.11.04 1.67.1.56.07 1.11.21 1.67.42l-.52 8.23c-1.39-.42-2.86-.62-4.39-.62-5.01 0-8.65 1.61-10.92 4.84-2.26 3.23-3.39 7.65-3.39 13.28v23.74h-8.15v-37.17z"/><path d="m209.55 270.55c2.51-2.57 5.48-4.46 8.93-5.67s6.95-1.82 10.5-1.82c7.24 0 12.46 1.7 15.67 5.1 3.2 3.4 4.8 8.57 4.8 15.52v20.93c0 1.39.07 2.83.21 4.32s.31 2.86.52 4.11h-7.83c-.28-1.11-.44-2.34-.47-3.7-.04-1.35-.05-2.55-.05-3.59h-.21c-1.6 2.5-3.74 4.55-6.42 6.14-2.68 1.6-5.9 2.4-9.66 2.4-2.51 0-4.86-.31-7.05-.94-2.19-.62-4.11-1.54-5.75-2.76-1.64-1.21-2.94-2.72-3.92-4.53-.98-1.8-1.46-3.89-1.46-6.25 0-4.03 1.04-7.19 3.13-9.48s4.68-3.99 7.78-5.1 6.44-1.8 10.03-2.08 6.88-.42 9.87-.42h3.13v-1.46c0-3.54-1.06-6.21-3.19-8.02-2.12-1.8-5.1-2.71-8.93-2.71-2.65 0-5.24.43-7.78 1.3s-4.79 2.2-6.74 4.01l-5.12-5.31zm23.61 19.06c-5.22 0-9.37.73-12.43 2.19-3.07 1.46-4.6 3.85-4.6 7.19 0 3.06 1.03 5.22 3.08 6.51s4.61 1.93 7.68 1.93c2.37 0 4.44-.4 6.21-1.2 1.78-.8 3.25-1.86 4.44-3.18 1.18-1.32 2.09-2.86 2.72-4.63s.97-3.66 1.04-5.68v-3.12h-8.15z"/><path d="m263.24 245.25c0-1.6.58-2.98 1.72-4.17 1.15-1.18 2.56-1.77 4.23-1.77s3.08.59 4.23 1.77 1.72 2.57 1.72 4.17c0 1.74-.56 3.16-1.67 4.27s-2.54 1.67-4.28 1.67-3.17-.56-4.28-1.67c-1.12-1.11-1.67-2.53-1.67-4.27zm1.88 19.06h8.15v48.73h-8.15z"/><path d="m289.45 275.86c0-2.22-.07-4.3-.21-6.25-.14-1.94-.21-3.71-.21-5.31h7.73c0 1.32.03 2.64.1 3.96s.1 2.67.1 4.06h.21c.56-1.18 1.34-2.32 2.35-3.44 1.01-1.11 2.21-2.1 3.6-2.97s2.96-1.56 4.7-2.08 3.62-.78 5.64-.78c3.2 0 5.97.49 8.3 1.46s4.26 2.33 5.8 4.06c1.53 1.74 2.66 3.84 3.39 6.3s1.1 5.15 1.1 8.07v30.09h-8.15v-29.26c0-4.1-.91-7.32-2.72-9.68s-4.63-3.54-8.46-3.54c-2.65 0-4.93.45-6.84 1.35-1.92.9-3.48 2.19-4.7 3.85-1.22 1.67-2.12 3.64-2.72 5.94-.59 2.29-.89 4.83-.89 7.6v23.74h-8.15v-37.17z"/><path d="m56.79 335.26c1.47 1.42 2.2 3.5 2.2 6.26s-.65 4.86-1.94 6.6-3.29 2.61-6.01 2.61c-2.26 0-4.06-.77-5.4-2.31-1.33-1.54-2-3.6-2-6.19 0-2.78.7-4.99 2.11-6.63 1.4-1.64 3.29-2.47 5.66-2.47 2.12 0 3.92.71 5.38 2.13zm-1.73 10.99c.68-1.39 1.02-2.94 1.02-4.65 0-1.54-.25-2.79-.73-3.76-.78-1.52-2.11-2.28-4.01-2.28-1.68 0-2.91.65-3.67 1.94s-1.15 2.86-1.15 4.69.38 3.22 1.15 4.39 1.98 1.76 3.64 1.76c1.83 0 3.08-.7 3.76-2.09z"/><path d="m62.18 333.69h2.72v2.19c.56-.75 1.17-1.33 1.83-1.74.94-.62 2.05-.93 3.32-.93 1.88 0 3.48.72 4.8 2.15 1.31 1.44 1.97 3.49 1.97 6.15 0 3.6-.95 6.17-2.84 7.72-1.2.98-2.6 1.47-4.2 1.47-1.25 0-2.3-.27-3.15-.82-.5-.31-1.05-.84-1.66-1.59v8.44h-2.79zm10.48 12.96c.86-1.08 1.3-2.71 1.3-4.87 0-1.32-.19-2.45-.58-3.4-.72-1.82-2.05-2.73-3.98-2.73s-3.26.96-3.98 2.89c-.38 1.03-.57 2.34-.57 3.92 0 1.28.19 2.36.57 3.26.73 1.71 2.05 2.56 3.98 2.56 1.3 0 2.39-.54 3.25-1.63z"/><path d="m90.28 334.07c1.1.55 1.93 1.26 2.51 2.14.55.83.92 1.81 1.11 2.92.16.76.25 1.98.25 3.64h-12.06c.05 1.68.45 3.03 1.18 4.05s1.88 1.52 3.42 1.52c1.44 0 2.6-.48 3.46-1.44.48-.56.82-1.2 1.02-1.94h2.74c-.07.61-.31 1.28-.72 2.03s-.86 1.36-1.36 1.83c-.84.82-1.88 1.38-3.12 1.67-.67.16-1.42.25-2.26.25-2.05 0-3.79-.75-5.21-2.25-1.43-1.5-2.14-3.59-2.14-6.29s.72-4.81 2.15-6.47 3.31-2.48 5.63-2.48c1.17 0 2.3.28 3.4.83zm1 6.49c-.11-1.2-.37-2.17-.78-2.89-.76-1.34-2.02-2.01-3.79-2.01-1.27 0-2.33.46-3.19 1.38s-1.31 2.09-1.37 3.51h9.13z"/><path d="m97.67 333.61h2.65v2.35c.78-.97 1.62-1.66 2.49-2.08s1.85-.63 2.93-.63c2.35 0 3.94.82 4.77 2.45.45.9.68 2.18.68 3.84v10.6h-2.83v-10.42c0-1.01-.15-1.82-.45-2.44-.5-1.03-1.39-1.54-2.69-1.54-.66 0-1.2.07-1.62.2-.76.23-1.43.68-2.01 1.36-.46.55-.77 1.11-.91 1.69s-.21 1.41-.21 2.49v8.66h-2.79v-16.53z"/><path d="m125.77 344.96c.08.93.32 1.64.71 2.13.72.9 1.96 1.34 3.73 1.34 1.05 0 1.98-.22 2.78-.67s1.2-1.14 1.2-2.08c0-.71-.32-1.25-.96-1.62-.41-.23-1.22-.49-2.42-.79l-2.25-.56c-1.44-.35-2.5-.74-3.18-1.17-1.22-.75-1.83-1.79-1.83-3.12 0-1.56.57-2.83 1.72-3.8 1.14-.97 2.68-1.45 4.62-1.45 2.53 0 4.36.73 5.47 2.19.7.93 1.04 1.92 1.02 2.99h-2.63c-.05-.62-.28-1.19-.68-1.7-.65-.73-1.79-1.09-3.41-1.09-1.08 0-1.89.2-2.45.6s-.83.93-.83 1.58c0 .72.36 1.29 1.09 1.72.42.26 1.04.48 1.86.68l1.88.45c2.04.48 3.41.95 4.1 1.4 1.08.71 1.63 1.83 1.63 3.35s-.57 2.74-1.7 3.81-2.86 1.6-5.18 1.6c-2.5 0-4.27-.56-5.31-1.67-1.04-1.12-1.6-2.5-1.67-4.14h2.68z"/><path d="m151.97 335.26c1.47 1.42 2.2 3.5 2.2 6.26s-.65 4.86-1.94 6.6-3.29 2.61-6.01 2.61c-2.26 0-4.06-.77-5.4-2.31-1.33-1.54-2-3.6-2-6.19 0-2.78.7-4.99 2.11-6.63 1.4-1.64 3.29-2.47 5.66-2.47 2.12 0 3.92.71 5.38 2.13zm-1.72 10.99c.68-1.39 1.02-2.94 1.02-4.65 0-1.54-.25-2.79-.73-3.76-.78-1.52-2.11-2.28-4.01-2.28-1.68 0-2.91.65-3.67 1.94s-1.15 2.86-1.15 4.69.38 3.22 1.15 4.39 1.98 1.76 3.64 1.76c1.83 0 3.08-.7 3.76-2.09z"/><path d="m160.38 333.61v10.97c0 .84.13 1.53.39 2.07.48.99 1.38 1.48 2.7 1.48 1.89 0 3.18-.86 3.86-2.59.37-.93.56-2.2.56-3.81v-8.12h2.79v16.53h-2.63l.03-2.44c-.35.63-.8 1.16-1.32 1.59-1.04.86-2.31 1.3-3.8 1.3-2.32 0-3.9-.79-4.74-2.36-.46-.84-.68-1.97-.68-3.38v-11.23h2.85z"/><path d="m175.3 333.61h2.65v2.85c.22-.56.75-1.23 1.59-2.03.85-.8 1.82-1.2 2.93-1.2.05 0 .14 0 .26.02.12.01.33.03.63.06v2.93c-.17-.03-.32-.05-.46-.06s-.29-.02-.46-.02c-1.4 0-2.48.45-3.24 1.35s-1.13 1.94-1.13 3.11v9.51h-2.79v-16.53z"/><path d="m196.74 334.49c1.17.91 1.88 2.46 2.11 4.68h-2.71c-.17-1.02-.54-1.86-1.13-2.54s-1.53-1.01-2.83-1.01c-1.78 0-3.04.86-3.81 2.59-.5 1.12-.74 2.5-.74 4.15s.35 3.05 1.05 4.18 1.81 1.7 3.31 1.7c1.16 0 2.07-.35 2.75-1.05s1.14-1.66 1.4-2.88h2.71c-.31 2.19-1.08 3.79-2.32 4.81-1.24 1.01-2.82 1.52-4.75 1.52-2.17 0-3.9-.79-5.19-2.37s-1.94-3.55-1.94-5.92c0-2.9.71-5.16 2.12-6.77s3.21-2.42 5.4-2.42c1.87 0 3.39.45 4.56 1.36z"/><path d="m211.88 334.07c1.1.55 1.93 1.26 2.51 2.14.55.83.92 1.81 1.11 2.92.16.76.25 1.98.25 3.64h-12.06c.05 1.68.45 3.03 1.18 4.05s1.88 1.52 3.42 1.52c1.44 0 2.6-.48 3.46-1.44.48-.56.82-1.2 1.02-1.94h2.74c-.07.61-.31 1.28-.72 2.03s-.86 1.36-1.36 1.83c-.84.82-1.88 1.38-3.12 1.67-.67.16-1.42.25-2.26.25-2.05 0-3.79-.75-5.21-2.25-1.43-1.5-2.14-3.59-2.14-6.29s.72-4.81 2.15-6.47 3.31-2.48 5.63-2.48c1.17 0 2.3.28 3.4.83zm.99 6.49c-.11-1.2-.37-2.17-.78-2.89-.76-1.34-2.02-2.01-3.79-2.01-1.27 0-2.33.46-3.19 1.38s-1.31 2.09-1.37 3.51h9.13z"/><path d="m242.22 335.13c1.36 1.45 2.04 3.58 2.04 6.39 0 2.96-.67 5.22-2 6.77-1.34 1.55-3.06 2.33-5.16 2.33-1.34 0-2.46-.33-3.34-1-.49-.37-.96-.91-1.42-1.62v8.77h-4.37v-23.44h4.23v2.48c.47-.73.98-1.31 1.52-1.73.98-.75 2.15-1.13 3.5-1.13 1.97 0 3.64.73 5.02 2.18zm-2.5 6.6c0-1.3-.3-2.44-.89-3.44s-1.56-1.5-2.89-1.5c-1.6 0-2.7.76-3.3 2.27-.31.8-.46 1.82-.46 3.06 0 1.96.52 3.33 1.56 4.12.62.46 1.35.69 2.2.69 1.23 0 2.17-.47 2.81-1.42.65-.95.97-2.21.97-3.78z"/><path d="m255.94 337.38c-1.78 0-2.97.58-3.58 1.73-.34.65-.51 1.65-.51 2.99v8.04h-4.44v-16.82h4.21v2.93c.68-1.12 1.27-1.89 1.78-2.3.83-.69 1.9-1.03 3.22-1.03h.21c.06 0 .18.01.38.02v4.51c-.28-.03-.53-.05-.74-.06s-.39-.02-.53-.02z"/><path d="m273.87 335.45c1.42 1.78 2.14 3.88 2.14 6.31s-.71 4.58-2.14 6.33c-1.42 1.75-3.59 2.63-6.49 2.63s-5.06-.88-6.49-2.63c-1.42-1.75-2.14-3.87-2.14-6.33s.71-4.53 2.14-6.31c1.42-1.78 3.59-2.67 6.49-2.67s5.06.89 6.49 2.67zm-6.5 1.05c-1.29 0-2.28.46-2.98 1.37s-1.04 2.21-1.04 3.9.35 2.99 1.04 3.9c.7.92 1.69 1.37 2.98 1.37s2.28-.46 2.97-1.37c.69-.92 1.04-2.22 1.04-3.9s-.35-2.99-1.04-3.9-1.68-1.37-2.97-1.37z"/><path d="m279.36 333.4h4.41v18.55c0 1.7-.33 2.95-1.01 3.77-.67.81-1.99 1.22-3.95 1.22-.13 0-.33 0-.6-.02-.26-.01-.59-.02-.98-.03v-3.52c.25.02.42.03.53.04h.28c.43 0 .76-.11.98-.32s.33-.62.33-1.23v-18.47zm0-6.14h4.41v4.06h-4.41z"/><path d="m302.41 345.2c-.11 1-.63 2.01-1.56 3.04-1.45 1.64-3.47 2.45-6.07 2.45-2.15 0-4.04-.69-5.68-2.07s-2.46-3.62-2.46-6.73c0-2.91.74-5.14 2.22-6.7 1.48-1.55 3.4-2.33 5.77-2.33 1.4 0 2.67.26 3.79.79 1.12.52 2.05 1.35 2.79 2.48.66 1 1.09 2.16 1.28 3.47.11.77.16 1.88.14 3.33h-11.55c.06 1.69.59 2.87 1.59 3.55.61.42 1.34.63 2.2.63.91 0 1.65-.26 2.21-.77.31-.28.58-.66.82-1.16h4.5zm-4.36-5.15c-.07-1.16-.43-2.04-1.06-2.65-.63-.6-1.42-.9-2.36-.9-1.02 0-1.81.32-2.38.96-.56.64-.92 1.5-1.06 2.59z"/><path d="m320.2 339.35h-4.52c-.08-.63-.29-1.19-.63-1.7-.5-.68-1.26-1.02-2.31-1.02-1.49 0-2.5.74-3.05 2.21-.29.78-.43 1.82-.43 3.12s.14 2.23.43 2.98c.53 1.4 1.52 2.1 2.97 2.1 1.03 0 1.76-.28 2.2-.83.43-.56.7-1.28.79-2.16h4.5c-.1 1.34-.59 2.6-1.46 3.8-1.38 1.92-3.43 2.89-6.15 2.89s-4.71-.8-5.99-2.41-1.92-3.69-1.92-6.25c0-2.89.71-5.14 2.12-6.74s3.36-2.41 5.85-2.41c2.12 0 3.85.47 5.19 1.42 1.35.95 2.14 2.62 2.39 5.02z"/><path d="m330.96 347.01v3.29l-2.09.08c-2.08.07-3.51-.29-4.27-1.08-.5-.5-.74-1.28-.74-2.33v-10.35h-2.35v-3.13h2.35v-4.69h4.37v4.69h2.74v3.13h-2.74v8.89c0 .69.09 1.12.26 1.29s.71.25 1.61.25h.43c.15 0 .3-.01.44-.02z"/></svg>