<svg viewBox="0 0 380 280" xmlns="http://www.w3.org/2000/svg"><g fill="currentColor"><path d="m28.59 260.11-12.5-12.17c-3.14-3.05-2.93-7.14.14-10.24l56.67-57.15c2.11-2.13 5.67.03 7.47 3.11l8.34-8.13c-23.52-27.64-20.31-68.23 6.6-92.21 32.05-28.56 81.84-21.34 104.06 15.78 12.01 20.07 12.45 45.43.97 65.77-20.62 36.52-68.01 46.45-101.36 20.84l-7.98 8.27c2.4 2.68 3.43 4.12 4.03 6.92l-58.05 58.53c-1.97 1.98-6.25 2.76-8.39.68zm127.28-77.1c28.27-8.09 44.09-37.7 35.61-65.31-7.1-23.12-28.82-37.76-52.19-37.1s-44.49 17.03-50.05 40.54c-4.42 18.66 2.03 37.42 15.43 49.96 13.47 12.61 32.38 17.3 51.21 11.91z"/><path d="m178.44 196.75c39.64 44.58 108.19 46.3 149.75 2.72 27.78-29.13 36.3-71.65 19.81-109.97-14.7-34.16-48.66-58.84-87.8-60.84-33.26-1.7-64.88 11.89-85.52 38.09l-9.16-4.39c21.37-27.95 53.18-43.13 87.46-43.68 46.82-.76 88.42 27.77 105.13 69.62 17.99 45.07 5.16 94.92-31.41 126.08-47.07 40.09-115.48 34.41-157.24-12.57l9-5.05z"/><path d="m193.52 185.41c24.37 25.71 61.44 34.25 93.74 19.92 45.96-20.4 63.85-75.42 37.82-118.46-13.7-22.66-38.03-37.12-63.49-39.25-27.6-2.31-53.49 8.81-71.04 29.75l-7.53-6.02c23.63-29.44 63.89-40.93 99.92-29.25 33.51 10.87 57.25 39.26 62.77 72.37 6.03 36.19-9.68 71.1-39.31 91.42-38.23 26.22-88.43 20.04-119.84-14.07l6.97-6.41z"/><path d="m205.58 170.47c18.83 21.41 48.67 29.06 75.03 16.98 25.11-11.51 40.4-37.89 36.64-66.53-3.33-25.32-22.22-45.84-45.76-52.27-25.79-7.05-52.16 2.51-68.06 23.29l-5.93-8.06c26.6-32.99 75.13-36.39 106.23-8.26 30.97 28 32.13 76.2 2.41 105.83-29.55 29.46-78.23 28.6-106.34-3.27z"/><path d="m264.14 86.52c-21.33-4.73-41.21 6.33-50.68 24.85l-4.87-10.7c17.74-27.34 55.32-33.28 80.21-12.8 24.97 20.55 26.48 58.44 3.36 80.73-23.6 22.75-61.84 19.82-81.82-7.01l4.03-11.81c9.78 18.51 30.27 28.06 50.67 23.02 19.25-4.75 33.59-22.51 33.66-43.1s-13.62-38.55-34.55-43.19z"/><path d="m156.25 59.82-14.29-3.16c9.96-6.47 20.77-11.31 32.9-13.49-6.89 5.26-12.7 10.17-18.61 16.66z"/><path d="m162.79 205.33-14.41 2.54c9.66 6.9 20.25 12.21 32.28 14.92-6.65-5.56-12.24-10.72-17.87-17.46z"/><path d="m158.91 157.91-52.67.09-.17-9.58 52.83-.1z"/><path d="m176.23 118.34-44.19.02-.03-9.5 44.17.02z"/><path d="m176.24 138.18h-36.25l-.03-9.63 36.19.08z"/><path d="m132.41 138.16-26.32.04.05-9.63 26.19.03z"/><path d="m124.2 118.36-18.09-.02-.02-9.53 18.1.06z"/><path d="m147.42 216.32c21.02 13.32 45.14 18.53 69.46 15.05l15.26 6.43c-36.94 10.94-77.17 1.26-105.35-25.91 6.69 1.84 12.97 3.4 20.63 4.42z"/></g></svg>