<svg viewBox="0 0 801.71 280" xmlns="http://www.w3.org/2000/svg" fill="currentColor"><g fill="currentColor"><path d="m28.59 260.11-12.5-12.17c-3.14-3.05-2.93-7.14.14-10.24l56.67-57.15c2.11-2.13 5.67.03 7.47 3.11l8.34-8.13c-23.52-27.64-20.31-68.23 6.6-92.21 32.05-28.56 81.84-21.34 104.06 15.78 12.01 20.07 12.45 45.43.97 65.77-20.62 36.52-68.01 46.45-101.36 20.84l-7.98 8.27c2.4 2.68 3.43 4.12 4.03 6.92l-58.05 58.53c-1.97 1.98-6.25 2.76-8.39.68zm127.28-77.1c28.27-8.09 44.09-37.7 35.61-65.31-7.1-23.12-28.82-37.76-52.19-37.1s-44.49 17.03-50.05 40.54c-4.42 18.66 2.03 37.42 15.43 49.96 13.47 12.61 32.38 17.3 51.21 11.91z"/><path d="m178.44 196.75c39.64 44.58 108.19 46.3 149.75 2.72 27.78-29.13 36.3-71.65 19.81-109.97-14.7-34.16-48.66-58.84-87.8-60.84-33.26-1.7-64.88 11.89-85.52 38.09l-9.16-4.39c21.37-27.95 53.18-43.13 87.46-43.68 46.82-.76 88.42 27.77 105.13 69.62 17.99 45.07 5.16 94.92-31.41 126.08-47.07 40.09-115.48 34.41-157.24-12.57l9-5.05z"/><path d="m193.52 185.41c24.37 25.71 61.44 34.25 93.74 19.92 45.96-20.4 63.85-75.42 37.82-118.46-13.7-22.66-38.03-37.12-63.49-39.25-27.6-2.31-53.49 8.81-71.04 29.75l-7.53-6.02c23.63-29.44 63.89-40.93 99.92-29.25 33.51 10.87 57.25 39.26 62.77 72.37 6.03 36.19-9.68 71.1-39.31 91.42-38.23 26.22-88.43 20.04-119.84-14.07l6.97-6.41z"/><path d="m205.58 170.47c18.83 21.41 48.67 29.06 75.03 16.98 25.11-11.51 40.4-37.89 36.64-66.53-3.33-25.32-22.22-45.84-45.76-52.27-25.79-7.05-52.16 2.51-68.06 23.29l-5.93-8.06c26.6-32.99 75.13-36.39 106.23-8.26 30.97 28 32.13 76.2 2.41 105.83-29.55 29.46-78.23 28.6-106.34-3.27z"/><path d="m264.14 86.52c-21.33-4.73-41.21 6.33-50.68 24.85l-4.87-10.7c17.74-27.34 55.32-33.28 80.21-12.8 24.97 20.55 26.48 58.44 3.36 80.73-23.6 22.75-61.84 19.82-81.82-7.01l4.03-11.81c9.78 18.51 30.27 28.06 50.67 23.02 19.25-4.75 33.59-22.51 33.66-43.1s-13.62-38.55-34.55-43.19z"/><path d="m156.25 59.82-14.29-3.16c9.96-6.47 20.77-11.31 32.9-13.49-6.89 5.26-12.7 10.17-18.61 16.66z"/><path d="m162.79 205.33-14.41 2.54c9.66 6.9 20.25 12.21 32.28 14.92-6.65-5.56-12.24-10.72-17.87-17.46z"/><path d="m158.91 157.91-52.67.09-.17-9.58 52.83-.1z"/><path d="m176.23 118.34-44.19.02-.03-9.5 44.17.02z"/><path d="m176.24 138.18h-36.25l-.03-9.63 36.19.08z"/><path d="m132.41 138.16-26.32.04.05-9.63 26.19.03z"/><path d="m124.2 118.36-18.09-.02-.02-9.53 18.1.06z"/><path d="m147.42 216.32c21.02 13.32 45.14 18.53 69.46 15.05l15.26 6.43c-36.94 10.94-77.17 1.26-105.35-25.91 6.69 1.84 12.97 3.4 20.63 4.42z"/></g><path d="m420.18 109.66c0-2.67-.08-5.18-.25-7.52s-.25-4.47-.25-6.39h9.27c0 1.59.04 3.17.12 4.76s.12 3.22.12 4.88h.25c.67-1.42 1.61-2.8 2.82-4.13s2.65-2.52 4.32-3.57c1.67-1.04 3.55-1.88 5.64-2.51s4.34-.94 6.76-.94c.67 0 1.33.04 2 .12s1.33.25 2 .5l-.63 9.9c-1.67-.5-3.42-.75-5.26-.75-6.01 0-10.38 1.94-13.09 5.82s-4.07 9.21-4.07 15.97v28.56h-9.77v-44.71z"/><path d="m514.37 143.72c-3.51 4.51-7.35 7.66-11.52 9.46-4.18 1.79-9.02 2.69-14.53 2.69-4.59 0-8.73-.81-12.4-2.44s-6.79-3.82-9.33-6.58c-2.55-2.76-4.51-6.01-5.89-9.77s-2.07-7.77-2.07-12.02c0-4.51.75-8.66 2.25-12.46s3.59-7.06 6.26-9.77 5.84-4.82 9.52-6.33c3.67-1.5 7.68-2.25 12.02-2.25 4.09 0 7.85.69 11.27 2.07s6.37 3.38 8.83 6.01 4.36 5.85 5.7 9.64c1.33 3.8 2 8.12 2 12.96v3.13h-47.34c.17 2.5.77 4.91 1.82 7.2 1.04 2.3 2.4 4.3 4.07 6.01s3.63 3.07 5.89 4.07c2.25 1 4.72 1.5 7.39 1.5 4.26 0 7.85-.75 10.77-2.25s5.55-3.71 7.89-6.64l7.39 5.76zm-8.39-23.92c-.17-5.01-1.8-9.02-4.88-12.02-3.09-3.01-7.35-4.51-12.78-4.51s-9.81 1.5-13.15 4.51-5.34 7.01-6.01 12.02z"/><path d="m536.66 104.02h-12.78v-8.27h12.78v-13.15c0-3.59.33-6.87 1-9.83s1.82-5.53 3.44-7.7c1.63-2.17 3.78-3.86 6.45-5.07s5.97-1.82 9.9-1.82c1.25 0 2.59.13 4.01.38s2.59.63 3.51 1.13l-1.38 8.77c-2.34-.83-4.55-1.25-6.64-1.25-2.51 0-4.47.44-5.89 1.32s-2.49 2.09-3.19 3.63c-.71 1.55-1.13 3.4-1.25 5.57s-.19 4.51-.19 7.01v11.02h14.28v8.27h-14.28v50.35h-9.77v-50.35z"/><path d="m571.11 109.66c0-2.67-.08-5.18-.25-7.52s-.25-4.47-.25-6.39h9.27c0 1.59.04 3.17.12 4.76s.12 3.22.12 4.88h.25c.67-1.42 1.61-2.8 2.82-4.13s2.65-2.52 4.32-3.57c1.67-1.04 3.55-1.88 5.64-2.51s4.34-.94 6.76-.94c.67 0 1.33.04 2 .12s1.33.25 2 .5l-.63 9.9c-1.67-.5-3.42-.75-5.26-.75-6.01 0-10.38 1.94-13.09 5.82s-4.07 9.21-4.07 15.97v28.56h-9.77v-44.71z"/><path d="m614.44 103.27c3.01-3.09 6.58-5.36 10.71-6.83 4.13-1.46 8.33-2.19 12.59-2.19 8.68 0 14.95 2.05 18.79 6.14s5.76 10.31 5.76 18.66v25.18c0 1.67.08 3.4.25 5.2s.38 3.44.63 4.95h-9.39c-.33-1.33-.52-2.82-.56-4.45s-.06-3.07-.06-4.32h-.25c-1.92 3.01-4.49 5.47-7.7 7.39s-7.08 2.88-11.59 2.88c-3.01 0-5.82-.38-8.45-1.13s-4.93-1.86-6.89-3.32-3.53-3.28-4.7-5.45-1.75-4.68-1.75-7.52c0-4.84 1.25-8.64 3.76-11.4 2.5-2.76 5.61-4.8 9.33-6.14 3.71-1.33 7.72-2.17 12.02-2.51 4.3-.33 8.25-.5 11.84-.5h3.76v-1.75c0-4.26-1.27-7.47-3.82-9.64s-6.12-3.26-10.71-3.26c-3.17 0-6.28.52-9.33 1.57-3.05 1.04-5.74 2.65-8.08 4.82l-6.14-6.39zm28.31 22.92c-6.26 0-11.23.88-14.9 2.63-3.68 1.75-5.51 4.63-5.51 8.64 0 3.68 1.23 6.28 3.7 7.83 2.46 1.55 5.53 2.32 9.21 2.32 2.84 0 5.32-.48 7.45-1.44s3.9-2.23 5.32-3.82 2.5-3.44 3.26-5.57c.75-2.13 1.17-4.4 1.25-6.83v-3.76h-9.77z"/><path d="m678.82 72.83c0-1.92.69-3.59 2.07-5.01s3.07-2.13 5.07-2.13 3.69.71 5.07 2.13 2.07 3.09 2.07 5.01c0 2.09-.67 3.8-2 5.14-1.34 1.34-3.05 2-5.13 2s-3.8-.67-5.14-2-2-3.05-2-5.14zm2.25 22.92h9.77v58.62h-9.77z"/><path d="m710.26 109.66c0-2.67-.08-5.18-.25-7.52s-.25-4.47-.25-6.39h9.27c0 1.59.04 3.17.12 4.76s.12 3.22.12 4.88h.25c.67-1.42 1.61-2.8 2.82-4.13s2.65-2.52 4.32-3.57c1.67-1.04 3.55-1.88 5.64-2.51s4.34-.94 6.76-.94c3.84 0 7.16.58 9.96 1.75s5.11 2.8 6.95 4.88c1.84 2.09 3.19 4.61 4.07 7.58.88 2.96 1.32 6.2 1.32 9.71v36.2h-9.77v-35.2c0-4.93-1.09-8.81-3.26-11.65s-5.55-4.26-10.15-4.26c-3.17 0-5.91.54-8.2 1.63-2.3 1.09-4.18 2.63-5.64 4.63s-2.55 4.38-3.26 7.14-1.06 5.8-1.06 9.14v28.56h-9.77v-44.71z"/><path d="m431.26 181.1c1.76 1.71 2.64 4.22 2.64 7.53s-.77 5.85-2.32 7.94-3.95 3.13-7.21 3.13c-2.72 0-4.87-.92-6.47-2.77s-2.4-4.33-2.4-7.45c0-3.34.84-6 2.52-7.97 1.68-1.98 3.94-2.97 6.78-2.97 2.54 0 4.69.85 6.45 2.56zm-2.07 13.21c.81-1.67 1.22-3.54 1.22-5.59 0-1.85-.29-3.36-.88-4.52-.93-1.83-2.53-2.74-4.81-2.74-2.02 0-3.49.78-4.4 2.34-.92 1.56-1.38 3.44-1.38 5.64s.46 3.88 1.38 5.28c.92 1.41 2.37 2.11 4.37 2.11 2.19 0 3.69-.84 4.51-2.51z"/><path d="m437.72 179.21h3.27v2.64c.67-.9 1.4-1.6 2.2-2.1 1.13-.74 2.46-1.11 3.98-1.11 2.26 0 4.18.86 5.75 2.59 1.58 1.73 2.36 4.19 2.36 7.4 0 4.33-1.14 7.42-3.41 9.28-1.44 1.18-3.12 1.76-5.03 1.76-1.5 0-2.76-.33-3.78-.98-.6-.37-1.26-1.01-1.99-1.91v10.15h-3.34v-27.71zm12.57 15.58c1.04-1.31 1.55-3.26 1.55-5.86 0-1.58-.23-2.94-.69-4.08-.87-2.19-2.46-3.29-4.77-3.29s-3.91 1.16-4.77 3.47c-.46 1.24-.69 2.81-.69 4.71 0 1.53.23 2.84.69 3.92.87 2.05 2.46 3.08 4.77 3.08 1.56 0 2.87-.65 3.9-1.96z"/><path d="m471.42 179.66c1.32.66 2.32 1.52 3.01 2.57.66 1 1.11 2.17 1.33 3.51.2.92.29 2.38.29 4.38h-14.46c.06 2.02.53 3.65 1.42 4.87.88 1.22 2.25 1.83 4.11 1.83 1.73 0 3.11-.58 4.14-1.73.58-.67.99-1.45 1.23-2.33h3.29c-.09.73-.37 1.54-.86 2.44s-1.03 1.63-1.64 2.2c-1.01.99-2.25 1.66-3.74 2-.8.2-1.7.3-2.71.3-2.46 0-4.54-.9-6.25-2.7s-2.56-4.32-2.56-7.56.86-5.79 2.58-7.78 3.97-2.99 6.75-2.99c1.4 0 2.76.33 4.08.99zm1.2 7.81c-.14-1.45-.45-2.6-.94-3.47-.91-1.61-2.42-2.41-4.55-2.41-1.52 0-2.8.55-3.83 1.66s-1.58 2.52-1.64 4.22h10.95z"/><path d="m480.29 179.12h3.17v2.82c.94-1.16 1.94-2 2.99-2.51s2.22-.76 3.51-.76c2.82 0 4.73.98 5.72 2.95.54 1.08.82 2.62.82 4.62v12.75h-3.4v-12.53c0-1.21-.18-2.19-.54-2.93-.59-1.24-1.67-1.86-3.23-1.86-.79 0-1.44.08-1.95.24-.92.27-1.72.82-2.41 1.63-.56.66-.92 1.33-1.09 2.03s-.25 1.7-.25 3v10.41h-3.34v-19.88z"/><path d="m513.98 192.76c.1 1.11.38 1.97.85 2.56.86 1.08 2.35 1.61 4.47 1.61 1.26 0 2.38-.27 3.33-.81.96-.54 1.44-1.37 1.44-2.5 0-.85-.38-1.5-1.15-1.95-.49-.27-1.46-.59-2.91-.95l-2.7-.67c-1.72-.42-2.99-.89-3.81-1.41-1.46-.9-2.19-2.15-2.19-3.75 0-1.88.69-3.4 2.06-4.57s3.22-1.75 5.54-1.75c3.04 0 5.22.88 6.57 2.64.84 1.11 1.25 2.31 1.22 3.6h-3.16c-.06-.75-.34-1.43-.82-2.05-.79-.87-2.15-1.31-4.08-1.31-1.29 0-2.27.24-2.94.72s-1 1.12-1 1.91c0 .86.44 1.55 1.31 2.07.5.31 1.25.58 2.23.81l2.25.54c2.45.58 4.08 1.15 4.92 1.69 1.3.85 1.95 2.2 1.95 4.03s-.68 3.3-2.04 4.58c-1.36 1.29-3.43 1.93-6.21 1.93-2.99 0-5.11-.67-6.36-2.01s-1.91-3-2-4.98h3.21z"/><path d="m545.4 181.1c1.76 1.71 2.64 4.22 2.64 7.53s-.77 5.85-2.32 7.94-3.95 3.13-7.21 3.13c-2.72 0-4.87-.92-6.47-2.77s-2.4-4.33-2.4-7.45c0-3.34.84-6 2.53-7.97 1.68-1.98 3.94-2.97 6.78-2.97 2.54 0 4.69.85 6.45 2.56zm-2.07 13.21c.81-1.67 1.22-3.54 1.22-5.59 0-1.85-.29-3.36-.88-4.52-.93-1.83-2.53-2.74-4.81-2.74-2.02 0-3.49.78-4.4 2.34-.92 1.56-1.38 3.44-1.38 5.64s.46 3.88 1.38 5.28c.92 1.41 2.37 2.11 4.37 2.11 2.19 0 3.69-.84 4.51-2.51z"/><path d="m555.48 179.12v13.2c0 1.02.16 1.84.47 2.49.58 1.19 1.66 1.78 3.24 1.78 2.26 0 3.81-1.04 4.63-3.12.45-1.11.67-2.64.67-4.58v-9.76h3.34v19.88h-3.16l.04-2.93c-.42.76-.95 1.39-1.58 1.91-1.25 1.04-2.77 1.56-4.55 1.56-2.78 0-4.67-.95-5.68-2.84-.55-1.01-.82-2.37-.82-4.06v-13.51h3.42z"/><path d="m573.38 179.12h3.17v3.43c.26-.67.9-1.48 1.91-2.44s2.18-1.44 3.51-1.44c.06 0 .17 0 .32.02.15.01.4.04.76.07v3.53c-.2-.04-.38-.06-.55-.07s-.35-.02-.55-.02c-1.68 0-2.98.54-3.88 1.62s-1.35 2.33-1.35 3.74v11.43h-3.34v-19.88z"/><path d="m599.08 180.18c1.4 1.09 2.25 2.96 2.53 5.62h-3.25c-.2-1.23-.65-2.24-1.35-3.05s-1.84-1.22-3.4-1.22c-2.13 0-3.65 1.04-4.57 3.11-.59 1.35-.89 3.01-.89 4.99s.42 3.66 1.26 5.02 2.17 2.04 3.97 2.04c1.39 0 2.48-.42 3.29-1.27.81-.84 1.37-2 1.68-3.47h3.25c-.37 2.64-1.3 4.56-2.78 5.78-1.49 1.22-3.38 1.83-5.7 1.83-2.6 0-4.67-.95-6.22-2.85s-2.32-4.27-2.32-7.12c0-3.49.85-6.21 2.54-8.15 1.7-1.94 3.85-2.91 6.48-2.91 2.24 0 4.06.54 5.47 1.63z"/><path d="m617.23 179.66c1.32.66 2.32 1.52 3.01 2.57.66 1 1.11 2.17 1.33 3.51.2.92.29 2.38.29 4.38h-14.46c.06 2.02.53 3.65 1.42 4.87.88 1.22 2.25 1.83 4.11 1.83 1.73 0 3.11-.58 4.14-1.73.58-.67.99-1.45 1.23-2.33h3.29c-.09.73-.37 1.54-.86 2.44s-1.03 1.63-1.64 2.2c-1.01.99-2.25 1.66-3.74 2-.8.2-1.7.3-2.71.3-2.46 0-4.54-.9-6.25-2.7s-2.56-4.32-2.56-7.56.86-5.79 2.58-7.78 3.97-2.99 6.75-2.99c1.4 0 2.76.33 4.08.99zm1.2 7.81c-.14-1.45-.45-2.6-.94-3.47-.91-1.61-2.42-2.41-4.55-2.41-1.52 0-2.8.55-3.83 1.66s-1.58 2.52-1.64 4.22h10.95z"/><path d="m653.62 180.94c1.63 1.75 2.45 4.31 2.45 7.69 0 3.56-.8 6.28-2.4 8.15s-3.67 2.8-6.19 2.8c-1.61 0-2.95-.4-4.01-1.21-.58-.45-1.15-1.09-1.71-1.95v10.54h-5.23v-28.2h5.07v2.99c.57-.88 1.18-1.57 1.82-2.08 1.18-.9 2.57-1.35 4.2-1.35 2.36 0 4.37.87 6.01 2.62zm-3 7.94c0-1.56-.36-2.94-1.07-4.14s-1.87-1.8-3.46-1.8c-1.92 0-3.24.91-3.95 2.73-.37.96-.56 2.19-.56 3.68 0 2.35.62 4 1.88 4.96.74.56 1.62.84 2.64.84 1.47 0 2.6-.57 3.37-1.71s1.16-2.65 1.16-4.55z"/><path d="m670.07 183.65c-2.13 0-3.56.69-4.29 2.08-.41.78-.61 1.98-.61 3.6v9.67h-5.33v-20.23h5.05v3.53c.82-1.35 1.53-2.27 2.13-2.77.99-.83 2.28-1.24 3.86-1.24h.25c.07 0 .22.02.46.03v5.42c-.33-.04-.63-.06-.89-.07s-.47-.02-.63-.02z"/><path d="m691.56 181.33c1.71 2.14 2.56 4.67 2.56 7.59s-.85 5.51-2.56 7.62-4.3 3.17-7.78 3.17-6.07-1.06-7.78-3.17-2.56-4.65-2.56-7.62.85-5.45 2.56-7.59 4.3-3.21 7.78-3.21 6.07 1.07 7.78 3.21zm-7.79 1.26c-1.55 0-2.74.55-3.57 1.64s-1.25 2.66-1.25 4.69.42 3.6 1.25 4.7 2.03 1.65 3.57 1.65 2.73-.55 3.56-1.65 1.24-2.67 1.24-4.7-.42-3.59-1.24-4.69c-.83-1.1-2.02-1.64-3.56-1.64z"/><path d="m698.15 178.86h5.29v22.31c0 2.04-.4 3.55-1.21 4.53-.8.98-2.38 1.47-4.73 1.47-.16 0-.4 0-.71-.02-.32-.01-.71-.02-1.18-.04v-4.23c.3.02.51.04.63.05h.33c.52 0 .91-.13 1.18-.38s.4-.75.4-1.48v-22.22zm0-7.39h5.29v4.88h-5.29z"/><path d="m725.8 193.06c-.14 1.2-.76 2.42-1.88 3.66-1.73 1.97-4.16 2.95-7.28 2.95-2.57 0-4.85-.83-6.81-2.49-1.97-1.66-2.95-4.36-2.95-8.09 0-3.5.89-6.19 2.66-8.06 1.78-1.87 4.08-2.8 6.92-2.8 1.68 0 3.2.32 4.55.95s2.46 1.63 3.34 2.99c.79 1.2 1.31 2.59 1.54 4.18.14.93.19 2.26.17 4.01h-13.85c.07 2.03.71 3.45 1.91 4.27.73.51 1.61.76 2.64.76 1.09 0 1.97-.31 2.65-.93.37-.33.7-.8.98-1.39h5.4zm-5.24-6.2c-.09-1.4-.51-2.46-1.27-3.18s-1.71-1.09-2.83-1.09c-1.23 0-2.18.38-2.85 1.15s-1.1 1.81-1.27 3.12z"/><path d="m747.12 186.02h-5.42c-.1-.75-.35-1.44-.76-2.04-.59-.82-1.52-1.23-2.77-1.23-1.78 0-3 .88-3.66 2.65-.35.94-.52 2.19-.52 3.75s.17 2.68.52 3.58c.63 1.68 1.82 2.52 3.56 2.52 1.24 0 2.12-.33 2.64-1s.83-1.53.95-2.6h5.4c-.12 1.61-.71 3.13-1.75 4.57-1.66 2.31-4.12 3.47-7.37 3.47s-5.65-.97-7.18-2.9c-1.54-1.93-2.3-4.44-2.3-7.52 0-3.48.85-6.18 2.54-8.11 1.7-1.93 4.03-2.9 7.02-2.9 2.54 0 4.61.57 6.23 1.71s2.57 3.15 2.87 6.03z"/><path d="m760.02 195.23v3.95l-2.51.09c-2.5.09-4.21-.35-5.12-1.3-.59-.61-.89-1.54-.89-2.8v-12.46h-2.82v-3.77h2.82v-5.64h5.24v5.64h3.29v3.77h-3.29v10.69c0 .83.1 1.35.32 1.55.21.2.85.31 1.93.31h.51s.36-.02.53-.03z"/></svg>